<svg viewBox="0 0 211.98 211.98" xmlns="http://www.w3.org/2000/svg">
    <defs><linearGradient id="pvGrad" x1="0" y1="105.99" x2="211.98" y2="105.99"><stop offset="0" stop-color="#ff94a6"/><stop offset="1" stop-color="#8b37ed"/></linearGradient></defs>
    <path fill="url(#pvGrad)" d="M56.43,105.99c21.77-10.17,39.38-27.79,49.56-49.56,10.18,21.77,27.79,39.38,49.56,49.56-21.77,10.18-39.39,27.79-49.56,49.56-10.18-21.77-27.79-39.39-49.56-49.56ZM211.98,92.84C163.57,86.86,125.12,48.41,119.14,0c48.4,5.97,86.86,44.43,92.83,92.83ZM92.84,0C86.87,48.41,48.41,86.87,0,92.84,5.97,44.43,44.43,5.97,92.84,0ZM0,119.15c48.4,5.98,86.86,44.43,92.83,92.83C44.43,206,5.98,167.55,0,119.15ZM119.14,211.98c5.97-48.41,44.43-86.87,92.84-92.84-5.97,48.41-44.43,86.87-92.84,92.84Z"/>
</svg>
